<?xml version="1.0" standalone="no"?>
<!DOCTYPE svg PUBLIC "-//W3C//DTD SVG 20010904//EN"
 "http://www.w3.org/TR/2001/REC-SVG-20010904/DTD/svg10.dtd">
<svg version="1.0" xmlns="http://www.w3.org/2000/svg"
 width="512.000000pt" height="512.000000pt" viewBox="0 0 512.000000 512.000000"
 preserveAspectRatio="xMidYMid meet">
<metadata>
Created by potrace 1.14, written by Peter Selinger 2001-2017
</metadata>
<g transform="translate(0.000000,512.000000) scale(0.100000,-0.100000)"
fill="#000000" stroke="none">
<path d="M2451 5105 c-101 -19 -161 -39 -266 -90 -253 -124 -359 -337 -358
-715 0 -95 12 -311 19 -342 10 -44 12 -453 3 -517 -11 -80 -19 -93 -188 -321
-235 -316 -279 -392 -363 -624 -131 -363 -148 -407 -186 -482 -57 -113 -76
-224 -57 -328 5 -24 3 -37 -7 -42 -19 -12 -79 -91 -102 -134 -48 -89 -115
-130 -285 -174 -121 -32 -169 -54 -204 -95 -52 -62 -58 -135 -23 -268 28 -107
25 -143 -25 -298 -27 -84 -35 -131 -31 -181 3 -36 70 -102 135 -133 59 -27
198 -63 297 -76 25 -4 61 -9 80 -11 78 -11 211 -47 334 -90 446 -156 542 -174
681 -127 38 13 67 35 120 89 65 66 74 72 125 80 30 4 57 8 60 9 12 3 117 19
135 20 11 1 49 6 85 10 87 10 381 13 450 4 30 -4 80 -11 110 -15 87 -11 93
-12 138 -22 23 -5 42 -7 42 -4 0 3 19 -21 41 -54 87 -123 155 -162 299 -169
139 -7 241 33 360 140 59 54 287 215 303 215 2 0 42 22 88 48 46 27 125 70
174 97 193 103 254 151 290 227 42 90 11 199 -73 251 -20 13 -59 34 -87 48
-57 28 -131 96 -146 136 -6 16 -13 64 -15 108 -6 100 -25 159 -74 233 l-38 57
20 100 c13 70 20 143 20 240 1 207 -24 301 -131 515 -58 113 -87 166 -112 202
-11 14 -19 29 -19 32 0 9 -280 427 -412 614 -79 113 -124 187 -143 239 -16 41
-30 80 -31 87 -21 112 -21 115 -39 466 -13 260 -53 440 -136 618 -104 225
-281 370 -514 422 -76 18 -260 20 -344 5z"/>
</g>
</svg>
